<svg xmlns="http://www.w3.org/2000/svg" viewBox="0 0 32 32">
  <rect width="32" height="32" rx="6" fill="#1A1A1A"/>
  <g transform="translate(4, 6)">
    <path d="M12 0 C6 4, 0 10, 0 16 C0 18, 2 20, 4 20 C6 20, 8 18, 8 16 C8 12, 10 8, 12 6 C14 8, 16 12, 16 16 C16 18, 18 20, 20 20 C22 20, 24 18, 24 16 C24 10, 18 4, 12 0Z" fill="#4221CE" opacity="0.8"/>
    <path d="M12 4 C8 7, 4 12, 4 16 C4 17, 5 18, 6 18 C7 18, 8 17, 8 16 C8 13, 10 10, 12 8 C14 10, 16 13, 16 16 C16 17, 17 18, 18 18 C19 18, 20 17, 20 16 C20 12, 16 7, 12 4Z" fill="#E1E0EB" opacity="0.6"/>
  </g>
</svg>
