<?xml version="1.0" encoding="UTF-8"?>
<svg id="Calque_2" data-name="Calque 2" xmlns="http://www.w3.org/2000/svg" viewBox="0 0 500 500">
  <defs>
    <style>
      .cls-1 {
        fill: #fff;
      }
    </style>
  </defs>
  <path class="cls-1" d="M258.5,47.92c7.44-.56,14.88-.84,22.46-.84,79.16,0,139.94,23.58,177.13,61.9,12.35,12.77,8.14,23.16-9.54,24.14-53.19,2.67-189.2-56.28-193.97-58.11-31.16-12.77-29.76-24.84,3.93-27.09Z"/>
  <path class="cls-1" d="M241.51,452.36c-7.44.56-14.88.84-22.46.84-79.16,0-139.94-23.58-177.13-61.9-12.35-12.77-8.14-23.16,9.54-24.14,53.19-2.67,189.2,56.28,193.97,58.11,31.16,12.77,29.76,24.84-3.93,27.09Z"/>
  <path class="cls-1" d="M469.46,319.09c-8.98,15.58-19.79,30.03-32,43.37-1.26,1.4-3.65,3.09-5.33,3.79-23.3,9.4-50.11,15.44-78.6,13.61-45.76-2.95-93.06-25.82-142.74-49.97-.42-.14-.7-.14-.7-.28-26.95-12.92-58.11-20.21-90.11-20.49l-105.83-.7c-7.44-.14-13.75-6.18-13.9-13.62-.28-4.35-.28-8.7,0-13.19.28-6.6,5.61-12.91,12.07-13.61,33.83-4.07,70.6-1.68,112.15,9.96,8.7,2.25,17.68,5.19,26.81,8.56h.14c16.28,5.89,33.97,9.4,52.21,9.54h7.3l246.32,2.11c13.05,0,18.67,9.54,12.21,20.91Z"/>
  <path class="cls-1" d="M499.35,226.59c-.42,4.21-3.93,9.4-7.72,11.23-26.95,13.05-59.51,22.88-94.88,20.77-45.62-2.95-92.78-25.69-142.46-49.83-.56-.14-.7-.14-.84-.28-27.37-13.19-59.09-20.21-91.23-20.49l-109.2-.84c-15.02-.14-19.93-9.96-11.37-22.32,3.23-4.63,6.6-9.12,10.25-13.47,1.97-2.53,6.32-4.91,9.54-5.19,32-3.23,67.09-.42,106.11,10.53,8.7,2.38,17.83,5.19,26.95,8.56l.14.14c16.42,5.9,33.68,9.12,51.79,9.26l8.14.14,229.76,1.96c6.74,0,12.77,5.61,13.76,12.21,1.96,12.07,2.39,24.7,1.26,37.61Z"/>
</svg>